PathFileType	4	(x/y/z)	S05_PSF_T03
DataRate	CameraRate	NumFrames	NumMarkers	Units	OrigDataRate	OrigDataStartFrame	OrigNumFrames
240	240	5	50	mm	240	154	410
Frame#	Time	Sternum			R.Acromium			L.Acromium			Top.Head			R.ASIS			L.ASIS			R.PSIS			L.PSIS			R.Great.Tro			L.Great.Tro			R.Iliac.Crest			L.Iliac.Crest			V.Sacral			R.Thigh.Upper.Post			R.Thigh.Lower.Ant			R.Thigh.Lower.Post			R.Thigh.Upper.Ant			R.Knee.Lat			R.Knee.Med			R.Shank.Upper.Post			R.Shank.Lower.Ant			R.Shank.Lower.Post			R.Shank.Upper.Ant			R.Ankle.Lat			R.Ankle.Med			R.Heel.Upper			R.Heel.Med			R.Heel.Lat			R.Toe.Lat			R.Toe.Med			R.Toe.Tip			L.Thigh.Upper.Post			L.Thigh.Lower.Ant			L.Thigh.Lower.Post			L.Thigh.Upper.Ant			L.Knee.Lat			L.Shank.Upper.Post			L.Shank.Lower.Ant			L.Shank.Lower.Post			L.Shank.Upper.Ant			L.Ankle.Lat			L.Ankle.Med			L.Heel.Upper			L.Heel.Med			L.Heel.Lat			L.Toe.Lat			L.Toe.Med			L.Toe.Tip			Cervical.Spine			Back			
		X1	Y1	Z1	X2	Y2	Z2	X3	Y3	Z3	X4	Y4	Z4	X5	Y5	Z5	X6	Y6	Z6	X7	Y7	Z7	X8	Y8	Z8	X9	Y9	Z9	X10	Y10	Z10	X11	Y11	Z11	X12	Y12	Z12	X13	Y13	Z13	X14	Y14	Z14	X15	Y15	Z15	X16	Y16	Z16	X17	Y17	Z17	X18	Y18	Z18	X19	Y19	Z19	X20	Y20	Z20	X21	Y21	Z21	X22	Y22	Z22	X23	Y23	Z23	X24	Y24	Z24	X25	Y25	Z25	X26	Y26	Z26	X27	Y27	Z27	X28	Y28	Z28	X29	Y29	Z29	X30	Y30	Z30	X31	Y31	Z31	X32	Y32	Z32	X33	Y33	Z33	X34	Y34	Z34	X35	Y35	Z35	X36	Y36	Z36	X37	Y37	Z37	X38	Y38	Z38	X39	Y39	Z39	X40	Y40	Z40	X41	Y41	Z41	X42	Y42	Z42	X43	Y43	Z43	X44	Y44	Z44	X45	Y45	Z45	X46	Y46	Z46	X47	Y47	Z47	X48	Y48	Z48	X49	Y49	Z49	X50	Y50	Z50	

154	0.6375	-595.01	1231.4	279.71	-696.96	1487.8	439.73	-709.12	1511	115.79	-694	1802.7	273.27	-644.85	980.87	397.1	-659.88	986.73	147.57	-852.25	993.27	331.03	-855.56	1002.8	240.7	-708.35	894.01	466.25	-769.9	914.72	82.682	-734.84	1059.5	445.62	-754.69	1063.6	110.97	-865.19	961.35	297.14	-590.96	699.88	452.51	-526.47	648.57	392.16	-577.92	612.82	429.63	-544.09	733.92	414.51	-552.1	522.15	407.41	-552.04	508.89	276.21	-558.76	272	397.47	-480.02	227.83	401.07	-536.87	199.08	382.26	-501.66	301.6	413.8	-459.4	123.19	383.98	-457.55	145.01	298.38	-513.84	64.382	320.56	-496.08	34.484	294.28	-501.62	38.741	358.73	-341.46	59.167	419	-304.9	73.628	302.98	-250.4	108	349.62	-823.28	688.53	90.489	-760.42	598.12	103.22	-832.56	594.52	104.48	-744.91	685.95	85.959	-855.3	503.05	111.24	-1014.2	368.35	123.35	-991.43	282.07	123.02	-1056.1	308.18	145.58	-956.08	342.6	107.59	-1105.6	171.49	156.56	-1059.8	169.36	238.83	-1176.5	155.04	215.35	-1173.5	129.9	249.08	-1189.1	128.45	189.75	-1037	41.191	126.1	-1000.6	52.011	242.96	-946.09	42.729	186.49	-750.1	1537.4	283.32	-859.77	1261	278.09
155	0.64167	-588.67	1232	280.42	-691	1488	440.65	-703.22	1511.6	116.69	-688.16	1803.1	274.36	-638.63	981.54	397.8	-653.76	986.89	148.22	-845.96	993.65	331.28	-849.08	1002.8	240.9	-702.23	894.72	466.88	-762.95	914.34	83.267	-728.67	1060.1	446.09	-747.98	1063.8	111.44	-858.8	961.6	297.46	-585.21	700.3	453.11	-520.72	648.86	392.85	-572.29	613.19	430.23	-538.16	734.24	415.23	-546.58	522.5	408.18	-546.76	509.25	276.98	-554.99	272.36	398.19	-476.65	227.47	401.49	-533.81	199.27	382.88	-497.55	301.43	414.33	-457.34	122.76	384.27	-455.26	144.56	298.72	-512.71	65.134	320.69	-495.58	34.979	294.33	-501.02	39.224	358.81	-340.37	56.753	419.06	-303.49	70.682	303.06	-248.3	103.92	349.72	-815.14	687.76	90.706	-751.68	597.69	102.93	-823.77	593.65	104.28	-736.68	685.74	86.083	-846.13	502.43	110.64	-1006.8	370.05	123.07	-985.21	283.46	122.56	-1049.3	310.57	145.23	-948.88	343.52	107.06	-1101	174.99	156.19	-1055.1	171.92	238.28	-1171.8	160.67	215.06	-1169.4	135.67	248.91	-1185.1	134.3	189.61	-1036.2	42.405	126.11	-999.44	52.605	242.85	-945.68	42.338	186.49	-744.12	1537.8	284.28	-853.5	1261.2	278.66
156	0.64583	-582.36	1232.7	281.12	-685.05	1488.4	441.57	-697.32	1512.2	117.59	-682.33	1803.6	275.43	-632.47	982.27	398.53	-647.5	987.06	148.9	-839.72	994.09	331.49	-842.63	1002.9	241.07	-696.2	895.52	467.53	-755.97	913.96	83.857	-722.59	1060.7	446.57	-741.26	1064.1	111.9	-852.47	961.9	297.75	-579.49	700.79	453.75	-514.98	649.24	393.59	-566.68	613.65	430.86	-532.27	734.65	416.01	-541.11	522.9	408.99	-541.52	509.68	277.8	-551.3	272.75	398.99	-473.37	227.15	401.95	-530.84	199.5	383.57	-493.53	301.3	414.91	-455.38	122.37	384.6	-453.1	144.19	299.09	-511.63	65.855	320.85	-495.11	35.488	294.4	-500.46	39.695	358.91	-339.38	54.493	419.14	-302.21	67.942	303.16	-246.37	100.07	349.85	-806.82	686.95	90.879	-742.71	597.25	102.61	-814.76	592.75	104.05	-728.28	685.54	86.193	-836.68	501.77	110	-999.08	371.78	122.76	-978.69	284.9	122.07	-1042.2	313.01	144.85	-941.38	344.46	106.5	-1096.1	178.61	155.82	-1050.2	174.59	237.73	-1166.6	166.5	214.76	-1164.9	141.67	248.75	-1180.8	140.4	189.46	-1035.3	43.803	126.12	-998.12	53.321	242.73	-945.19	41.948	186.47	-738.13	1538.2	285.22	-847.26	1261.6	279.23
157	0.65	-576.07	1233.4	281.83	-679.1	1488.7	442.47	-691.41	1512.8	118.48	-676.49	1804.1	276.5	-626.38	983.06	399.28	-641.14	987.25	149.61	-833.52	994.58	331.67	-836.22	1003.1	241.21	-690.25	896.37	468.2	-748.97	913.58	84.448	-716.59	1061.4	447.05	-734.52	1064.4	112.37	-846.18	962.24	298.01	-573.81	701.36	454.43	-509.25	649.7	394.39	-561.09	614.19	431.52	-526.41	735.14	416.83	-535.7	523.34	409.84	-536.31	510.15	278.67	-547.71	273.18	399.87	-470.19	226.88	402.44	-527.98	199.79	384.33	-489.61	301.2	415.54	-453.55	122.01	384.95	-451.07	143.88	299.5	-510.62	66.538	321.02	-494.67	36.003	294.49	-499.93	40.147	359.02	-338.49	52.388	419.24	-301.05	65.407	303.26	-244.6	96.454	350	-798.33	686.1	91.007	-733.54	596.83	102.27	-805.56	591.8	103.77	-719.72	685.34	86.288	-826.96	501.08	109.33	-991.03	373.52	122.41	-971.87	286.39	121.58	-1034.8	315.5	144.44	-933.58	345.42	105.93	-1090.9	182.36	155.44	-1044.9	177.37	237.18	-1161.1	172.51	214.45	-1160.1	147.88	248.58	-1176.1	146.74	189.29	-1034.2	45.399	126.12	-996.65	54.178	242.57	-944.61	41.567	186.41	-732.15	1538.6	286.15	-841.03	1262	279.78
158	0.65417	-569.81	1234.2	282.53	-673.14	1489.2	443.36	-685.51	1513.5	119.36	-670.66	1804.6	277.55	-620.35	983.91	400.06	-634.7	987.45	150.35	-827.37	995.12	331.82	-829.87	1003.2	241.31	-684.38	897.29	468.88	-741.96	913.2	85.041	-710.68	1062.2	447.53	-727.79	1064.7	112.83	-839.94	962.63	298.24	-568.19	701.99	455.14	-503.54	650.22	395.24	-555.54	614.78	432.22	-520.59	735.68	417.7	-530.35	523.8	410.73	-531.14	510.66	279.56	-544.21	273.64	400.82	-467.11	226.63	402.97	-525.22	200.11	385.15	-485.78	301.12	416.21	-451.82	121.67	385.32	-449.16	143.65	299.93	-509.67	67.177	321.21	-494.25	36.513	294.58	-499.44	40.577	359.14	-337.68	50.441	419.34	-300	63.073	303.36	-243	93.066	350.15	-789.69	685.22	91.086	-724.17	596.41	101.91	-796.16	590.81	103.46	-711.01	685.16	86.37	-816.99	500.36	108.64	-982.66	375.29	122.04	-964.74	287.93	121.07	-1027.1	318.03	144	-925.48	346.39	105.36	-1085.4	186.23	155.06	-1039.4	180.27	236.62	-1155.2	178.69	214.14	-1154.9	154.29	248.41	-1171	153.29	189.1	-1033	47.207	126.12	-995.02	55.191	242.4	-943.92	41.203	186.32	-726.17	1539.1	287.07	-834.82	1262.4	280.31
